dataset
version=1
nRows=33
nColumns=39
inDegrees=no
endheader
time	sternoclavicular_r2	sternoclavicular_r3	unrotscap_r3	unrotscap_r2	acromioclavicular_r2	acromioclavicular_r3	acromioclavicular_r1	unrothum_r1	unrothum_r3	unrothum_r2	elv_angle	shoulder_elv	shoulder1_r2	shoulder_rot	elbow_flexion	pro_sup	deviation	flexion	cmc_abduction	cmc_flexion	mp_flexion	ip_flexion	mcp2_flexion	mcp2_abduction	pm2_flexion	md2_flexion	mcp3_flexion	mcp3_abduction	pm3_flexion	md3_flexion	mcp4_flexion	mcp4_abduction	pm4_flexion	md4_flexion	mcp5_flexion	mcp5_abduction	pm5_flexion	md5_flexion
0.000000	-0.026442	-0.350838	0.186181	0.134320	0.111323	0.114439	-0.155188	-0.065623	0.038907	0.160190	0.139188	0.027437	0.146525	0.146525	1.275707	0.940556	0.000000	0.000000	0.000000	0.000000	0.000000	0.000000	0.000000	0.000000	0.000000	0.000000	0.000000	0.000000	0.000000	0.000000	0.000000	0.000000	0.000000	0.000000	0.000000	0.000000	0.000000	0.000000
0.005000	-0.026439	-0.350825	0.186225	0.134309	0.111305	0.114477	-0.155217	-0.065547	0.038856	0.160154	0.139155	0.027437	0.146525	0.146525	1.276124	0.946774	0.000000	0.000000	0.000000	0.000000	0.000000	0.000000	0.000000	0.000000	0.000000	0.000000	0.000000	0.000000	0.000000	0.000000	0.000000	0.000000	0.000000	0.000000	0.000000	0.000000	0.000000	0.000000
0.010000	-0.026435	-0.350806	0.186242	0.134292	0.111282	0.114500	-0.155224	-0.065515	0.038836	0.160123	0.139127	0.027437	0.146525	0.146525	1.276541	0.952884	0.000000	0.000000	0.000000	0.000000	0.000000	0.000000	0.000000	0.000000	0.000000	0.000000	0.000000	0.000000	0.000000	0.000000	0.000000	0.000000	0.000000	0.000000	0.000000	0.000000	0.000000	0.000000
0.015000	-0.026430	-0.350782	0.186244	0.134270	0.111257	0.114514	-0.155217	-0.065507	0.038835	0.160094	0.139101	0.027437	0.146525	0.146525	1.276957	0.958888	0.000000	0.000000	0.000000	0.000000	0.000000	0.000000	0.000000	0.000000	0.000000	0.000000	0.000000	0.000000	0.000000	0.000000	0.000000	0.000000	0.000000	0.000000	0.000000	0.000000	0.000000	0.000000
0.020000	-0.026424	-0.350756	0.186236	0.134246	0.111231	0.114523	-0.155203	-0.065514	0.038845	0.160068	0.139077	0.027437	0.146525	0.146525	1.277371	0.964788	0.000000	0.000000	0.000000	0.000000	0.000000	0.000000	0.000000	0.000000	0.000000	0.000000	0.000000	0.000000	0.000000	0.000000	0.000000	0.000000	0.000000	0.000000	0.000000	0.000000	0.000000	0.000000
0.025000	-0.026418	-0.350728	0.186222	0.134222	0.111206	0.114529	-0.155183	-0.065530	0.038861	0.160043	0.139055	0.027437	0.146525	0.146525	1.277784	0.970585	0.000000	0.000000	0.000000	0.000000	0.000000	0.000000	0.000000	0.000000	0.000000	0.000000	0.000000	0.000000	0.000000	0.000000	0.000000	0.000000	0.000000	0.000000	0.000000	0.000000	0.000000	0.000000
0.030000	-0.026412	-0.350698	0.186204	0.134198	0.111180	0.114532	-0.155161	-0.065550	0.038883	0.160019	0.139035	0.027437	0.146525	0.146525	1.278195	0.976282	0.000000	0.000000	0.000000	0.000000	0.000000	0.000000	0.000000	0.000000	0.000000	0.000000	0.000000	0.000000	0.000000	0.000000	0.000000	0.000000	0.000000	0.000000	0.000000	0.000000	0.000000	0.000000
0.035000	-0.026406	-0.350666	0.186184	0.134173	0.111155	0.114534	-0.155136	-0.065575	0.038908	0.159996	0.139016	0.027437	0.146525	0.146525	1.278603	0.981879	0.000000	0.000000	0.000000	0.000000	0.000000	0.000000	0.000000	0.000000	0.000000	0.000000	0.000000	0.000000	0.000000	0.000000	0.000000	0.000000	0.000000	0.000000	0.000000	0.000000	0.000000	0.000000
0.040000	-0.026399	-0.350634	0.186162	0.134149	0.111130	0.114535	-0.155109	-0.065601	0.038934	0.159975	0.138998	0.027437	0.146525	0.146525	1.279009	0.987378	0.000000	0.000000	0.000000	0.000000	0.000000	0.000000	0.000000	0.000000	0.000000	0.000000	0.000000	0.000000	0.000000	0.000000	0.000000	0.000000	0.000000	0.000000	0.000000	0.000000	0.000000	0.000000
0.045000	-0.026393	-0.350600	0.186138	0.134125	0.111106	0.114536	-0.155081	-0.065630	0.038963	0.159954	0.138981	0.027437	0.146525	0.146525	1.279412	0.992780	0.000000	0.000000	0.000000	0.000000	0.000000	0.000000	0.000000	0.000000	0.000000	0.000000	0.000000	0.000000	0.000000	0.000000	0.000000	0.000000	0.000000	0.000000	0.000000	0.000000	0.000000	0.000000
0.050000	-0.026387	-0.350565	0.186112	0.134102	0.111083	0.114535	-0.155052	-0.065659	0.038994	0.159935	0.138965	0.027437	0.146525	0.146525	1.279813	0.998088	0.000000	0.000000	0.000000	0.000000	0.000000	0.000000	0.000000	0.000000	0.000000	0.000000	0.000000	0.000000	0.000000	0.000000	0.000000	0.000000	0.000000	0.000000	0.000000	0.000000	0.000000	0.000000
0.055000	-0.026380	-0.350529	0.186086	0.134080	0.111060	0.114534	-0.155023	-0.065690	0.039025	0.159916	0.138951	0.027437	0.146525	0.146525	1.280211	1.003303	0.000000	0.000000	0.000000	0.000000	0.000000	0.000000	0.000000	0.000000	0.000000	0.000000	0.000000	0.000000	0.000000	0.000000	0.000000	0.000000	0.000000	0.000000	0.000000	0.000000	0.000000	0.000000
0.060000	-0.026374	-0.350492	0.186058	0.134058	0.111038	0.114531	-0.154992	-0.065722	0.039058	0.159898	0.138937	0.027437	0.146525	0.146525	1.280606	1.008427	0.000000	0.000000	0.000000	0.000000	0.000000	0.000000	0.000000	0.000000	0.000000	0.000000	0.000000	0.000000	0.000000	0.000000	0.000000	0.000000	0.000000	0.000000	0.000000	0.000000	0.000000	0.000000
0.065000	-0.026367	-0.350455	0.186030	0.134036	0.111017	0.114529	-0.154960	-0.065756	0.039092	0.159882	0.138924	0.027437	0.146525	0.146525	1.280998	1.013460	0.000000	0.000000	0.000000	0.000000	0.000000	0.000000	0.000000	0.000000	0.000000	0.000000	0.000000	0.000000	0.000000	0.000000	0.000000	0.000000	0.000000	0.000000	0.000000	0.000000	0.000000	0.000000
0.070000	-0.026361	-0.350416	0.186000	0.134015	0.110996	0.114525	-0.154928	-0.065790	0.039126	0.159866	0.138912	0.027437	0.146525	0.146525	1.281388	1.018404	0.000000	0.000000	0.000000	0.000000	0.000000	0.000000	0.000000	0.000000	0.000000	0.000000	0.000000	0.000000	0.000000	0.000000	0.000000	0.000000	0.000000	0.000000	0.000000	0.000000	0.000000	0.000000
0.075000	-0.026354	-0.350377	0.185970	0.133994	0.110976	0.114520	-0.154896	-0.065825	0.039162	0.159851	0.138902	0.027437	0.146525	0.146525	1.281774	1.023261	0.000000	0.000000	0.000000	0.000000	0.000000	0.000000	0.000000	0.000000	0.000000	0.000000	0.000000	0.000000	0.000000	0.000000	0.000000	0.000000	0.000000	0.000000	0.000000	0.000000	0.000000	0.000000
0.080000	-0.026348	-0.350336	0.185939	0.133974	0.110957	0.114515	-0.154862	-0.065861	0.039198	0.159837	0.138892	0.027437	0.146525	0.146525	1.282157	1.028033	0.000000	0.000000	0.000000	0.000000	0.000000	0.000000	0.000000	0.000000	0.000000	0.000000	0.000000	0.000000	0.000000	0.000000	0.000000	0.000000	0.000000	0.000000	0.000000	0.000000	0.000000	0.000000
0.085000	-0.026341	-0.350295	0.185906	0.133954	0.110938	0.114509	-0.154829	-0.065898	0.039236	0.159824	0.138882	0.027437	0.146525	0.146525	1.282537	1.032720	0.000000	0.000000	0.000000	0.000000	0.000000	0.000000	0.000000	0.000000	0.000000	0.000000	0.000000	0.000000	0.000000	0.000000	0.000000	0.000000	0.000000	0.000000	0.000000	0.000000	0.000000	0.000000
0.090000	-0.026335	-0.350254	0.185874	0.133935	0.110920	0.114503	-0.154795	-0.065936	0.039273	0.159812	0.138874	0.027437	0.146525	0.146525	1.282913	1.037325	0.000000	0.000000	0.000000	0.000000	0.000000	0.000000	0.000000	0.000000	0.000000	0.000000	0.000000	0.000000	0.000000	0.000000	0.000000	0.000000	0.000000	0.000000	0.000000	0.000000	0.000000	0.000000
0.095000	-0.026328	-0.350212	0.185840	0.133916	0.110903	0.114495	-0.154760	-0.065975	0.039312	0.159800	0.138867	0.027437	0.146525	0.146525	1.283285	1.041848	0.000000	0.000000	0.000000	0.000000	0.000000	0.000000	0.000000	0.000000	0.000000	0.000000	0.000000	0.000000	0.000000	0.000000	0.000000	0.000000	0.000000	0.000000	0.000000	0.000000	0.000000	0.000000
0.100000	-0.026322	-0.350169	0.185806	0.133898	0.110886	0.114487	-0.154726	-0.066015	0.039350	0.159790	0.138860	0.027437	0.146525	0.146525	1.283654	1.046291	0.000000	0.000000	0.000000	0.000000	0.000000	0.000000	0.000000	0.000000	0.000000	0.000000	0.000000	0.000000	0.000000	0.000000	0.000000	0.000000	0.000000	0.000000	0.000000	0.000000	0.000000	0.000000
0.105000	-0.026315	-0.350125	0.185772	0.133880	0.110870	0.114478	-0.154691	-0.066056	0.039390	0.159781	0.138855	0.027437	0.146525	0.146525	1.284019	1.050655	0.000000	0.000000	0.000000	0.000000	0.000000	0.000000	0.000000	0.000000	0.000000	0.000000	0.000000	0.000000	0.000000	0.000000	0.000000	0.000000	0.000000	0.000000	0.000000	0.000000	0.000000	0.000000
0.110000	-0.026309	-0.350082	0.185737	0.133863	0.110854	0.114467	-0.154657	-0.066098	0.039429	0.159772	0.138850	0.027437	0.146525	0.146525	1.284380	1.054942	0.000000	0.000000	0.000000	0.000000	0.000000	0.000000	0.000000	0.000000	0.000000	0.000000	0.000000	0.000000	0.000000	0.000000	0.000000	0.000000	0.000000	0.000000	0.000000	0.000000	0.000000	0.000000
0.115000	-0.026302	-0.350037	0.185702	0.133846	0.110839	0.114457	-0.154622	-0.066141	0.039469	0.159765	0.138846	0.027437	0.146525	0.146525	1.284737	1.059153	0.000000	0.000000	0.000000	0.000000	0.000000	0.000000	0.000000	0.000000	0.000000	0.000000	0.000000	0.000000	0.000000	0.000000	0.000000	0.000000	0.000000	0.000000	0.000000	0.000000	0.000000	0.000000
0.120000	-0.026296	-0.349993	0.185666	0.133829	0.110825	0.114445	-0.154588	-0.066185	0.039509	0.159759	0.138842	0.027437	0.146525	0.146525	1.285089	1.063289	0.000000	0.000000	0.000000	0.000000	0.000000	0.000000	0.000000	0.000000	0.000000	0.000000	0.000000	0.000000	0.000000	0.000000	0.000000	0.000000	0.000000	0.000000	0.000000	0.000000	0.000000	0.000000
0.125000	-0.026290	-0.349948	0.185630	0.133813	0.110812	0.114432	-0.154553	-0.066229	0.039549	0.159753	0.138840	0.027437	0.146525	0.146525	1.285436	1.067352	0.000000	0.000000	0.000000	0.000000	0.000000	0.000000	0.000000	0.000000	0.000000	0.000000	0.000000	0.000000	0.000000	0.000000	0.000000	0.000000	0.000000	0.000000	0.000000	0.000000	0.000000	0.000000
0.130000	-0.026283	-0.349903	0.185594	0.133798	0.110799	0.114419	-0.154520	-0.066275	0.039590	0.159749	0.138838	0.027437	0.146525	0.146525	1.285779	1.071343	0.000000	0.000000	0.000000	0.000000	0.000000	0.000000	0.000000	0.000000	0.000000	0.000000	0.000000	0.000000	0.000000	0.000000	0.000000	0.000000	0.000000	0.000000	0.000000	0.000000	0.000000	0.000000
0.135000	-0.026277	-0.349858	0.185558	0.133783	0.110787	0.114404	-0.154486	-0.066322	0.039630	0.159746	0.138837	0.027437	0.146525	0.146525	1.286116	1.075263	0.000000	0.000000	0.000000	0.000000	0.000000	0.000000	0.000000	0.000000	0.000000	0.000000	0.000000	0.000000	0.000000	0.000000	0.000000	0.000000	0.000000	0.000000	0.000000	0.000000	0.000000	0.000000
0.140000	-0.026271	-0.349813	0.185522	0.133769	0.110776	0.114389	-0.154454	-0.066370	0.039670	0.159743	0.138837	0.027437	0.146525	0.146525	1.286449	1.079113	0.000000	0.000000	0.000000	0.000000	0.000000	0.000000	0.000000	0.000000	0.000000	0.000000	0.000000	0.000000	0.000000	0.000000	0.000000	0.000000	0.000000	0.000000	0.000000	0.000000	0.000000	0.000000
0.145000	-0.026265	-0.349768	0.185486	0.133755	0.110766	0.114372	-0.154421	-0.066418	0.039709	0.159742	0.138837	0.027437	0.146525	0.146525	1.286776	1.082895	0.000000	0.000000	0.000000	0.000000	0.000000	0.000000	0.000000	0.000000	0.000000	0.000000	0.000000	0.000000	0.000000	0.000000	0.000000	0.000000	0.000000	0.000000	0.000000	0.000000	0.000000	0.000000
0.150000	-0.026259	-0.349723	0.185451	0.133742	0.110756	0.114355	-0.154390	-0.066468	0.039749	0.159742	0.138839	0.027437	0.146525	0.146525	1.287097	1.086609	0.000000	0.000000	0.000000	0.000000	0.000000	0.000000	0.000000	0.000000	0.000000	0.000000	0.000000	0.000000	0.000000	0.000000	0.000000	0.000000	0.000000	0.000000	0.000000	0.000000	0.000000	0.000000
0.155000	-0.026253	-0.349678	0.185416	0.133730	0.110747	0.114337	-0.154360	-0.066518	0.039788	0.159743	0.138841	0.027437	0.146525	0.146525	1.287412	1.090258	0.000000	0.000000	0.000000	0.000000	0.000000	0.000000	0.000000	0.000000	0.000000	0.000000	0.000000	0.000000	0.000000	0.000000	0.000000	0.000000	0.000000	0.000000	0.000000	0.000000	0.000000	0.000000
0.160000	-0.026248	-0.349633	0.185381	0.133718	0.110739	0.114318	-0.154330	-0.066570	0.039827	0.159745	0.138843	0.027437	0.146525	0.146525	1.287722	1.093842	0.000000	0.000000	0.000000	0.000000	0.000000	0.000000	0.000000	0.000000	0.000000	0.000000	0.000000	0.000000	0.000000	0.000000	0.000000	0.000000	0.000000	0.000000	0.000000	0.000000	0.000000	0.000000
